<svg width="39" height="60" viewBox="0 0 39 60" fill="none" xmlns="http://www.w3.org/2000/svg">
<path  fill-rule="evenodd" clip-rule="evenodd" d="M24.9734 0.840495C29.2781 2.10206 33.8304 5.06039 35.2509 7.51961C38.2628 12.734 39.2418 32.7677 37.1241 45.8551C36.0303 52.6153 35.0795 54.0565 29.7489 57.034C26.1802 59.027 24.1265 59.6809 20.5884 59.9492C13.1002 60.5173 4.2807 56.2386 2.24434 51.0497C-0.562012 43.8994 -0.787162 20.1823 1.85509 10.0612C2.13866 8.9759 2.78623 7.71838 3.5885 6.69594C5.72203 3.97742 11.3368 1.00126 15.8977 0.171875C18.082 -0.225663 22.428 0.0948583 24.9734 0.840495ZM14.1907 2.37045C10.5248 3.29501 6.27009 5.73035 4.58306 7.86972C3.37685 9.39967 2.84699 11.1049 2.01683 16.1276C0.389968 25.9702 0.560521 36.9929 2.49003 46.7121C3.44114 51.5027 4.52788 53.0337 8.58153 55.2925C12.4529 57.45 14.963 58.1206 19.1811 58.124C22.1591 58.1267 23.112 57.9875 25.3456 57.2226C28.3513 56.1935 31.9467 54.1056 33.3256 52.5887C34.6638 51.116 35.3493 49.0183 36.227 43.707C37.6862 34.8791 37.5562 23.594 35.8888 14.383C35.1288 10.183 34.2755 8.11692 32.7514 6.7854C31.2143 5.44279 26.9904 3.27651 24.4914 2.5487C21.7646 1.75497 16.9612 1.67156 14.1907 2.37045ZM9.05355 10.6717C9.05355 11.9033 10.8234 17.4493 12.0812 20.1591C12.757 21.6154 14.3853 24.4352 15.6998 26.4259L18.0896 30.0451L16.5153 32.1132C12.7796 37.0208 10.1406 42.4942 9.16363 47.3609C8.87595 48.7943 8.53544 49.9674 8.40657 49.9674C8.01761 49.9674 8.13738 48.8686 8.90649 45.386C9.80006 41.3406 11.9409 36.3119 14.3134 32.6873L16.0477 30.0374L13.9153 27.1379C10.5733 22.5934 8.54041 18.8192 7.15338 14.5835C6.53957 12.7095 6.71307 11.5609 7.7813 10.4268C8.61851 9.53757 9.05355 9.62131 9.05355 10.6717ZM29.3145 14.7405C28.4955 18.4089 26.2571 23.6202 24.0076 27.0965C22.8085 28.9493 22.2751 30.0454 22.4454 30.3071C22.5874 30.5257 23.5623 31.8717 24.6118 33.2984C28.275 38.2787 31.9849 46.1545 31.4644 47.8462C31.2522 48.536 29.8942 50.3037 29.5766 50.3037C29.4612 50.3037 29.2044 49.509 29.0056 48.538C27.9374 43.3199 25.7651 38.3887 22.2178 33.1302C21.1126 31.492 20.2085 30.0532 20.2085 29.9328C20.2085 29.8124 20.8731 28.8807 21.6856 27.8623C25.675 22.8611 27.8112 18.1889 29.4932 10.7853L29.7222 9.77636L29.8279 10.8728C29.886 11.4762 29.655 13.2167 29.3145 14.7405Z" fill="#FF5800"/>
</svg>
